<?xml version="1.0" standalone="no"?>
<!DOCTYPE svg PUBLIC "-//W3C//DTD SVG 20010904//EN"
 "http://www.w3.org/TR/2001/REC-SVG-20010904/DTD/svg10.dtd">
<svg version="1.0" xmlns="http://www.w3.org/2000/svg"
 width="7001.000000pt" height="4001.000000pt" viewBox="0 0 7001.000000 4001.000000"
 preserveAspectRatio="xMidYMid meet">

<g transform="translate(0.000000,4001.000000) scale(0.100000,-0.100000)"
fill="#000000" stroke="none">
<path d="M10 36325 l0 -3684 53 31 c28 17 129 72 222 123 1501 817 3204 1332
4915 1485 382 34 521 41 950 47 1729 24 3311 -295 4850 -980 660 -294 1288
-621 2465 -1285 1177 -663 1479 -828 2035 -1105 430 -215 765 -368 1101 -503
1483 -594 2750 -728 3989 -423 573 141 1153 388 1720 732 144 87 457 294 465
307 3 5 -50 83 -118 172 -383 504 -771 1085 -1362 2043 -600 972 -690 1116
-961 1526 -639 971 -1209 1676 -1969 2434 -1044 1044 -2169 1886 -3535 2646
l-205 114 -7307 3 -7308 2 0 -3685z"/>
<path d="M14965 40001 c3 -6 40 -29 83 -52 526 -289 1304 -802 1842 -1213
1176 -899 2220 -1962 3056 -3111 374 -513 677 -976 1291 -1973 628 -1019 919
-1470 1244 -1928 135 -191 394 -538 413 -553 39 -33 955 721 1536 1264 41 38
138 129 215 200 76 72 263 247 415 390 151 143 381 359 510 479 129 121 262
245 295 276 93 88 505 453 655 581 1322 1128 2388 1718 3674 2034 767 188
1534 274 2581 291 547 9 990 -4 2480 -76 1427 -68 2229 -63 3065 21 1115 111
2094 392 2820 808 272 156 558 356 805 562 130 109 422 395 540 529 366 418
635 857 811 1325 l52 140 -3246 6 c-5524 10 -25144 10 -25137 0z"/>
<path d="M43755 39883 c-284 -904 -914 -1749 -1797 -2411 -735 -551 -1600
-912 -2693 -1126 -434 -84 -865 -136 -1485 -178 -252 -18 -1641 -17 -2005 0
-148 7 -544 26 -880 42 -1018 49 -1071 51 -1655 57 -576 6 -918 -3 -1335 -33
-1085 -77 -1994 -288 -2802 -650 -843 -377 -1767 -1027 -2801 -1971 -129 -118
-363 -334 -437 -403 -178 -167 -800 -753 -859 -809 -38 -36 -76 -73 -85 -81
-9 -8 -95 -87 -191 -175 -96 -88 -222 -203 -280 -255 -57 -52 -113 -103 -125
-114 -40 -36 -353 -304 -470 -402 -161 -135 -380 -308 -548 -434 -76 -57 -136
-106 -135 -111 9 -25 273 -314 453 -497 404 -411 812 -744 1275 -1043 1354
-872 2741 -1139 3960 -762 202 62 344 120 565 228 514 253 958 583 1494 1110
353 348 554 566 1155 1260 525 605 727 827 1041 1140 386 387 626 593 955 824
1186 832 2425 971 3936 442 562 -196 1024 -410 2169 -1001 1152 -596 1732
-847 2370 -1029 484 -138 863 -195 1310 -195 289 0 451 14 702 60 1008 184
1985 779 2979 1814 403 421 817 917 1295 1555 172 229 225 302 1489 2030 1886
2579 2015 2755 2018 2765 2 6 -5 10 -17 10 -24 0 -51 35 -51 66 0 26 43 64 72
64 10 0 29 -11 42 -25 l24 -25 129 177 c71 98 133 184 137 191 6 9 -885 12
-4437 12 l-4445 0 -37 -117z m7829 -249 c20 -8 21 -48 1 -64 -23 -19 -55 -3
-55 29 0 40 15 50 54 35z m-784 -34 c0 -5 -2 -10 -4 -10 -3 0 -8 5 -11 10 -3
6 -1 10 4 10 6 0 11 -4 11 -10z m788 -739 c8 -5 12 -21 10 -37 -2 -23 -9 -30
-30 -32 -19 -2 -30 3 -38 17 -21 40 20 77 58 52z m-788 -31 c0 -5 -4 -10 -10
-10 -5 0 -10 5 -10 10 0 6 5 10 10 10 6 0 10 -4 10 -10z m0 -770 c0 -5 -5 -10
-11 -10 -5 0 -7 5 -4 10 3 6 8 10 11 10 2 0 4 -4 4 -10z"/>
<path d="M51399 37998 c-805 -1101 -1642 -2246 -1859 -2543 -472 -646 -675
-918 -863 -1159 -1164 -1496 -2152 -2358 -3222 -2811 -142 -61 -457 -165 -610
-204 -300 -75 -559 -110 -875 -118 -777 -20 -1541 159 -2536 593 -319 139
-715 332 -1337 652 -1045 538 -1352 685 -1820 873 -507 202 -965 328 -1427
391 -144 20 -208 23 -495 22 -403 0 -582 -21 -920 -109 -844 -220 -1600 -736
-2504 -1710 -227 -244 -334 -366 -741 -835 -567 -654 -791 -900 -1100 -1210
-740 -739 -1396 -1178 -2119 -1417 -444 -147 -815 -200 -1323 -190 -387 7
-649 44 -1038 143 -1187 304 -2419 1093 -3355 2149 -82 93 -163 183 -180 201
l-30 33 -195 -130 c-312 -209 -559 -354 -875 -512 -703 -351 -1345 -541 -2110
-624 -232 -25 -871 -25 -1115 0 -1076 110 -2090 434 -3420 1093 -487 241 -874
451 -1965 1064 -418 235 -863 483 -990 552 -1406 765 -2315 1143 -3370 1403
-1655 407 -3445 428 -5191 60 -1290 -272 -2592 -774 -3667 -1414 l-137 -82 0
-8879 c0 -4884 2 -8880 5 -8880 5 0 268 77 885 260 245 72 564 167 710 210
146 43 486 144 755 223 753 223 3207 949 3505 1037 542 160 989 292 1776 526
138 41 263 74 276 74 20 0 841 -775 3844 -3626 2101 -1995 3865 -3671 3921
-3726 74 -71 103 -106 103 -123 0 -13 -50 -230 -110 -482 -61 -252 -119 -494
-130 -538 -11 -44 -66 -276 -124 -515 -148 -617 -651 -2709 -990 -4120 -92
-382 -214 -888 -271 -1125 -57 -236 -212 -882 -345 -1435 -132 -553 -243
-1013 -246 -1022 -5 -17 374 -18 7854 -18 l7859 0 220 323 c121 177 378 556
570 842 912 1357 1324 1921 1854 2540 460 537 1005 1073 1479 1456 1011 816
2059 1309 3130 1473 313 48 488 60 860 60 369 0 545 -12 880 -60 1075 -153
2266 -600 3768 -1413 l243 -131 172 34 c293 60 535 95 872 128 208 21 995 17
1215 -5 446 -45 977 -139 1478 -262 509 -125 845 -222 1857 -535 1331 -412
1858 -550 2508 -660 642 -108 1248 -130 1772 -64 971 121 1826 529 2635 1258
151 136 455 443 590 595 41 46 80 89 85 95 63 69 230 270 358 430 304 382 539
704 1132 1556 594 852 762 1081 1041 1416 471 565 1010 1082 1534 1470 569
422 1175 734 1748 900 190 55 446 107 642 131 180 21 584 24 745 4 1010 -121
1826 -618 2670 -1626 257 -307 440 -552 935 -1250 326 -460 484 -676 658 -897
560 -716 1037 -1141 1592 -1418 413 -207 838 -310 1378 -334 l102 -4 0 16974
0 16974 -8573 0 -8573 0 -1465 -2002z m7229 1826 c186 -93 185 -347 -3 -447
-56 -30 -164 -30 -221 0 -85 45 -134 127 -134 225 0 72 19 121 68 172 77 80
190 100 290 50z m-783 -8 c90 -41 135 -114 135 -218 0 -105 -59 -187 -161
-223 -151 -54 -312 62 -312 224 0 178 178 292 338 217z m1540 5 c47 -21 98
-69 123 -115 23 -44 23 -159 -2 -206 -47 -90 -119 -134 -216 -134 -251 0 -332
336 -108 448 63 32 143 35 203 7z m-2325 -22 c60 -27 79 -45 106 -104 44 -93
24 -186 -53 -257 -154 -138 -399 7 -353 210 30 134 176 208 300 151z m3088 5
c184 -76 174 -342 -15 -410 -152 -54 -313 79 -289 238 21 140 174 227 304 172z
m783 -34 c80 -41 118 -147 85 -234 -73 -191 -352 -155 -373 47 -16 158 142
261 288 187z m-4642 0 c168 -85 115 -342 -74 -358 -209 -17 -287 265 -100 362
42 22 127 20 174 -4z m-796 -14 c72 -30 117 -121 97 -196 -39 -147 -242 -173
-310 -39 -74 144 65 297 213 235z m6194 -3 c103 -49 121 -197 34 -276 -113
-102 -281 -25 -281 129 0 124 131 202 247 147z m-6958 -32 c90 -63 91 -179 2
-238 -116 -78 -263 50 -206 177 36 80 135 109 204 61z m7730 2 c43 -33 63 -68
63 -114 2 -88 -57 -149 -142 -149 -161 0 -199 217 -50 279 34 15 98 6 129 -16z
m-8492 -47 c40 -43 43 -88 10 -137 -32 -48 -89 -67 -139 -46 -93 39 -97 167
-7 215 41 22 99 8 136 -32z m9243 29 c56 -29 77 -109 43 -166 -50 -85 -182
-69 -213 26 -16 49 -4 89 36 125 40 34 86 40 134 15z m755 -20 c60 -29 73 -99
26 -146 -22 -21 -39 -29 -66 -29 -27 0 -44 8 -66 29 -46 47 -34 116 25 145 39
19 41 19 81 1z m-10810 -1 c21 -8 45 -56 45 -89 0 -16 -12 -38 -29 -56 -37
-37 -79 -38 -120 -3 -63 52 -28 154 53 154 19 0 42 -3 51 -6z m11583 -30 c27
-18 30 -69 5 -96 -23 -26 -78 -24 -97 4 -22 32 -20 55 9 83 28 29 51 31 83 9z
m762 -29 c26 -32 -13 -81 -47 -59 -35 22 -23 74 17 74 10 0 23 -7 30 -15z
m750 -25 c0 -5 -4 -10 -10 -10 -5 0 -10 5 -10 10 0 6 5 10 10 10 6 0 10 -4 10
-10z m-7612 -534 c94 -48 141 -128 142 -236 0 -122 -75 -223 -189 -257 -224
-65 -415 165 -311 374 68 136 224 187 358 119z m-782 -14 c88 -46 134 -122
134 -224 -1 -259 -341 -344 -465 -116 -76 140 -4 307 155 359 40 13 133 3 176
-19z m1515 13 c60 -21 104 -58 136 -113 24 -40 28 -58 28 -122 -1 -113 -46
-184 -145 -229 -90 -41 -215 -17 -282 55 -177 189 20 495 263 409z m753 -19
c105 -32 160 -107 160 -216 0 -136 -88 -225 -224 -224 -77 1 -112 16 -164 74
-47 52 -56 77 -56 151 0 108 68 194 175 220 46 11 58 10 109 -5z m-3055 -15
c137 -70 169 -248 65 -355 -48 -49 -95 -69 -164 -69 -124 0 -220 97 -220 223
0 90 46 165 125 201 54 25 144 25 194 0z m-778 -29 c99 -52 135 -167 82 -268
-11 -22 -39 -52 -62 -69 -37 -26 -51 -30 -111 -30 -60 0 -74 4 -111 30 -63 44
-92 105 -86 178 7 79 42 131 110 163 68 31 113 30 178 -4z m4601 18 c49 -14
94 -53 119 -103 32 -61 24 -153 -17 -204 -38 -48 -106 -83 -159 -83 -55 0
-134 41 -164 85 -26 39 -38 111 -27 168 9 47 71 115 121 132 48 17 78 18 127
5z m-5399 -34 c106 -45 138 -192 60 -271 -45 -44 -80 -58 -140 -53 -60 5 -96
26 -130 78 -27 39 -31 125 -9 168 40 78 138 113 219 78z m6202 -9 c76 -42 106
-147 65 -227 -27 -54 -72 -83 -137 -88 -64 -5 -103 9 -143 54 -74 85 -54 205
44 265 43 27 120 25 171 -4z m727 -7 c45 -13 95 -68 103 -114 14 -70 -32 -144
-103 -167 -98 -32 -207 64 -188 166 8 42 50 93 91 111 37 16 50 17 97 4z
m-7686 -22 c91 -62 80 -204 -19 -249 -23 -10 -51 -19 -62 -19 -38 0 -104 38
-125 72 -38 63 -17 162 44 199 44 27 121 25 162 -3z m-802 -13 c113 -54 71
-225 -54 -225 -100 0 -155 125 -88 198 41 43 88 53 142 27z m9308 -24 c23 -26
28 -41 28 -82 0 -45 -4 -55 -34 -85 -28 -28 -41 -34 -77 -34 -121 0 -172 131
-82 210 33 29 41 32 87 27 40 -3 55 -11 78 -36z m-10067 -16 c56 -56 18 -155
-60 -155 -49 0 -74 15 -91 56 -12 29 -12 39 0 68 17 41 39 55 89 56 27 0 45
-7 62 -25z m10816 -4 c38 -38 39 -80 2 -121 -83 -93 -217 25 -137 119 36 43
93 44 135 2z m-11613 -7 c19 -13 22 -24 20 -57 -2 -33 -9 -44 -30 -56 -35 -20
-79 -5 -92 30 -24 70 43 124 102 83z m12363 -2 c47 -39 16 -122 -47 -122 -32
0 -64 34 -64 68 0 32 8 45 35 60 29 16 50 15 76 -6z m759 -26 c6 -8 10 -25 8
-38 -2 -19 -9 -23 -38 -23 -29 0 -36 4 -38 23 -4 28 14 52 38 52 10 0 23 -7
30 -14z m750 -26 c0 -5 -4 -10 -10 -10 -5 0 -10 5 -10 10 0 6 5 10 10 10 6 0
10 -4 10 -10z m-7622 -549 c234 -121 151 -471 -111 -471 -186 0 -303 185 -223
356 57 123 214 177 334 115z m-774 -13 c82 -42 126 -116 126 -210 -1 -140 -97
-238 -235 -238 -136 0 -237 101 -237 236 0 180 185 294 346 212z m1542 4 c118
-61 166 -198 110 -317 -40 -88 -118 -137 -216 -137 -73 -1 -132 25 -178 78
-118 133 -60 342 108 393 48 14 130 7 176 -17z m-2325 -23 c131 -66 158 -240
53 -345 -51 -51 -99 -68 -174 -61 -153 14 -241 173 -172 312 53 108 182 150
293 94z m3105 -4 c116 -68 139 -240 46 -338 -48 -51 -97 -70 -173 -65 -56 3
-76 9 -111 34 -103 72 -126 213 -51 312 68 90 191 115 289 57z m-3888 -16 c62
-31 102 -95 102 -166 0 -30 -6 -68 -14 -86 -26 -63 -111 -117 -184 -117 -57 0
-138 55 -169 115 -33 63 -11 178 44 227 55 50 149 61 221 27z m4630 2 c133
-68 150 -244 32 -330 -162 -117 -374 54 -291 234 46 100 165 144 259 96z
m-5404 -30 c88 -49 108 -187 38 -257 -44 -43 -80 -57 -139 -52 -89 8 -143 62
-151 151 -11 137 131 227 252 158z m6162 10 c170 -77 115 -321 -72 -321 -59 0
-105 26 -142 80 -20 29 -23 45 -20 95 4 74 30 114 90 144 53 26 90 26 144 2z
m-6962 -25 c110 -46 110 -203 0 -256 -163 -79 -286 156 -131 250 38 23 85 25
131 6z m7743 -6 c99 -60 84 -215 -24 -256 -55 -21 -103 -12 -148 27 -55 49
-64 116 -25 188 30 58 134 80 197 41z m741 -15 c47 -19 72 -59 72 -115 0 -34
-6 -48 -34 -76 -28 -28 -42 -34 -75 -34 -57 0 -95 22 -116 66 -29 61 -2 133
58 159 41 18 49 18 95 0z m-9250 -11 c96 -67 48 -214 -71 -214 -106 0 -153
156 -64 210 39 24 104 26 135 4z m-770 -39 c41 -48 25 -116 -34 -141 -29 -12
-39 -12 -68 0 -64 27 -76 97 -26 148 27 26 36 30 68 25 22 -4 46 -17 60 -32z
m10813 6 c32 -33 37 -67 15 -110 -14 -27 -53 -51 -82 -51 -29 0 -71 30 -84 59
-40 96 77 175 151 102z m770 -42 c10 -26 9 -34 -8 -57 -40 -55 -123 -30 -123
36 0 73 102 89 131 21z m-12379 24 c24 -21 23 -68 -2 -93 -58 -58 -142 20 -94
88 18 27 69 30 96 5z m-784 -51 c-2 -23 -8 -27 -33 -27 -24 0 -31 5 -33 24 -5
32 23 54 50 40 13 -7 18 -19 16 -37z m13897 35 c13 -10 16 -21 11 -40 -5 -22
-12 -27 -36 -27 -24 0 -31 5 -36 27 -5 19 -2 30 11 40 11 7 22 13 25 13 3 0
14 -6 25 -13z m759 -38 c-3 -5 -10 -7 -15 -3 -5 3 -7 10 -3 15 3 5 10 7 15 3
5 -3 7 -10 3 -15z m-7633 -567 c34 -17 65 -44 84 -71 27 -39 30 -50 30 -125 0
-73 -3 -87 -28 -124 -40 -62 -96 -95 -168 -100 -129 -9 -231 72 -246 196 -7
66 12 126 55 174 74 82 176 101 273 50z m-757 -12 c20 -14 49 -43 64 -64 24
-35 27 -48 27 -121 0 -72 -3 -86 -27 -123 -92 -139 -307 -126 -380 23 -53 107
-12 238 92 293 62 33 169 29 224 -8z m1522 11 c126 -57 163 -233 72 -337 -87
-99 -232 -107 -320 -17 -110 113 -83 283 57 356 42 22 140 21 191 -2z m-2301
-29 c105 -73 120 -215 31 -307 -122 -127 -331 -52 -344 123 -12 171 173 280
313 184z m3060 19 c70 -31 125 -113 125 -186 0 -106 -100 -204 -208 -205 -115
0 -201 87 -202 204 0 149 151 248 285 187z m-3856 -25 c16 -9 43 -33 58 -53
25 -32 28 -45 28 -109 0 -81 -15 -111 -75 -151 -117 -80 -280 3 -280 143 0 89
30 140 105 176 46 22 115 19 164 -6z m4616 5 c144 -66 151 -263 13 -330 -141
-68 -293 50 -264 204 5 23 23 54 48 81 59 64 129 80 203 45z m790 -31 c124
-77 83 -269 -63 -296 -109 -21 -210 92 -181 201 12 44 74 110 111 118 41 9 97
-1 133 -23z m-6196 5 c68 -35 104 -119 81 -189 -15 -46 -78 -101 -123 -110
-71 -13 -141 23 -176 91 -6 12 -11 43 -11 70 0 90 63 153 153 153 26 0 61 -7
76 -15z m-778 -20 c40 -21 69 -71 69 -120 0 -76 -59 -135 -135 -135 -103 0
-167 109 -120 201 32 62 121 87 186 54z m7730 -8 c79 -52 87 -141 19 -209 -34
-34 -43 -38 -88 -38 -43 0 -57 5 -86 30 -63 56 -70 130 -18 191 45 54 115 65
173 26z m-8534 -7 c8 0 28 -13 44 -29 57 -57 32 -155 -46 -181 -96 -32 -184
79 -128 160 25 38 73 63 101 54 8 -2 20 -4 29 -4z m9291 -10 c44 -27 67 -80
52 -124 -41 -126 -220 -101 -220 30 0 40 29 84 63 99 44 19 67 18 105 -5z
m-10043 -35 c36 -35 35 -96 -1 -124 -48 -38 -116 -20 -134 34 -28 85 73 153
135 90z m10820 0 c54 -53 16 -145 -60 -145 -49 0 -85 36 -85 85 0 49 36 85 85
85 25 0 44 -8 60 -25z m-11610 -20 c32 -31 32 -55 1 -84 -46 -43 -119 4 -97
62 19 49 60 59 96 22z m12359 4 c31 -25 34 -61 6 -89 -24 -24 -48 -25 -78 -4
-33 23 -28 83 8 101 33 17 33 16 64 -8z m-13140 -31 c8 -14 7 -21 -6 -34 -30
-30 -75 9 -48 42 16 18 39 15 54 -8z m13909 0 c22 -34 -36 -66 -62 -34 -9 11
-10 20 -1 36 13 25 47 24 63 -2z m747 -18 c0 -5 -2 -10 -4 -10 -3 0 -8 5 -11
10 -3 6 -1 10 4 10 6 0 11 -4 11 -10z m-8410 -599 c50 -26 89 -86 97 -148 12
-102 -63 -199 -161 -210 -72 -8 -114 4 -162 49 -66 61 -82 144 -43 225 48 100
166 137 269 84z m789 -5 c55 -38 86 -98 85 -166 -1 -65 -20 -105 -68 -148 -75
-65 -170 -67 -255 -4 -89 66 -94 220 -9 299 64 60 176 68 247 19z m714 23 c47
-13 106 -63 123 -106 30 -71 9 -179 -42 -224 -84 -74 -222 -63 -288 24 -78
102 -32 259 90 302 48 17 68 18 117 4z m-2297 -19 c45 -18 84 -62 99 -115 18
-60 13 -91 -21 -152 -28 -49 -90 -83 -152 -83 -139 0 -223 139 -162 265 42 86
139 121 236 85z m3105 -6 c122 -62 125 -249 6 -319 -125 -73 -277 13 -277 157
0 137 148 225 271 162z m-3899 -4 c75 -21 129 -121 108 -199 -21 -77 -79 -123
-159 -124 -57 -1 -102 22 -138 69 -23 31 -28 47 -28 94 0 70 31 120 90 150 45
22 73 25 127 10z m4658 -12 c135 -68 112 -267 -35 -307 -73 -20 -146 12 -184
80 -47 83 -12 191 73 230 54 25 92 24 146 -3z m-5398 -29 c81 -58 76 -188 -9
-240 -27 -17 -45 -20 -89 -17 -61 5 -97 31 -120 85 -19 45 -17 77 7 124 38 75
140 98 211 48z m6151 17 c55 -23 87 -69 87 -127 0 -83 -34 -129 -111 -150 -42
-11 -50 -10 -93 10 -111 54 -114 208 -5 263 41 22 78 23 122 4z m-6957 -25
c64 -29 90 -100 59 -161 -60 -117 -235 -78 -235 53 0 46 37 99 80 114 46 16
48 16 96 -6z m7730 3 c22 -11 40 -31 55 -61 19 -39 20 -50 10 -83 -36 -121
-206 -121 -242 -1 -10 32 -8 45 8 83 31 70 99 95 169 62z m-8485 -43 c48 -49
38 -125 -21 -156 -46 -24 -78 -19 -116 19 -38 38 -43 70 -19 116 19 37 41 49
88 50 29 0 45 -7 68 -29z m9271 2 c33 -36 40 -69 24 -108 -49 -116 -215 -64
-192 59 14 75 116 104 168 49z m-10066 -16 c54 -46 23 -130 -47 -130 -33 0
-79 39 -79 68 0 72 73 108 126 62z m10807 12 c30 -16 37 -28 37 -71 0 -67 -70
-99 -124 -57 -19 15 -26 29 -26 57 0 65 57 100 113 71z m-11585 -37 c16 -21
15 -47 -4 -66 -23 -24 -61 -20 -80 9 -38 58 40 111 84 57z m12360 5 c17 -13
15 -52 -4 -71 -38 -39 -110 6 -85 53 21 38 54 45 89 18z m-13150 -31 c4 -21
-14 -37 -35 -29 -14 5 -18 35 -6 47 12 12 38 1 41 -18z m13910 -2 c3 -23 -18
-37 -43 -28 -16 6 -20 35 -8 48 14 14 48 1 51 -20z m-7682 -620 c102 -49 130
-177 58 -264 -57 -67 -150 -81 -220 -34 -49 33 -60 48 -75 102 -15 53 -1 106
38 153 49 57 131 75 199 43z m788 -7 c115 -65 110 -245 -7 -301 -43 -20 -119
-21 -155 -2 -73 38 -112 120 -93 193 31 114 155 168 255 110z m766 0 c80 -42
112 -145 70 -227 -27 -53 -72 -83 -135 -88 -65 -5 -115 17 -153 66 -23 30 -27
45 -27 101 0 80 26 123 89 152 55 25 104 24 156 -4z m-2312 -14 c46 -34 72
-81 72 -131 0 -151 -185 -219 -283 -103 -64 76 -36 198 55 245 42 21 120 16
156 -11z m3081 7 c54 -27 81 -74 81 -141 0 -98 -60 -159 -156 -159 -115 0
-193 111 -153 217 34 89 140 128 228 83z m-3897 0 c20 -6 50 -26 67 -45 56
-64 50 -147 -14 -204 -89 -77 -219 -31 -241 86 -12 65 36 144 100 162 42 12
46 12 88 1z m4655 -10 c110 -49 112 -208 3 -262 -97 -49 -210 21 -210 129 0
53 20 94 57 121 51 36 92 39 150 12z m-5394 -24 c14 -10 34 -38 43 -63 16 -41
16 -50 3 -86 -20 -60 -69 -90 -133 -84 -41 4 -55 11 -83 41 -28 30 -33 43 -33
85 0 39 6 56 27 81 14 18 36 36 47 41 30 13 98 5 129 -15z m6166 6 c122 -65
72 -242 -68 -242 -37 0 -49 6 -82 39 -35 34 -39 44 -39 88 0 55 17 85 64 114
39 24 82 24 125 1z m-6936 -42 c41 -45 38 -101 -7 -146 -38 -38 -77 -44 -126
-19 -37 19 -52 48 -52 96 1 46 18 74 57 94 43 22 94 12 128 -25z m7730 0 c40
-45 38 -101 -7 -146 -37 -37 -82 -45 -131 -22 -76 34 -70 165 9 199 40 17 99
3 129 -31z m-8515 -16 c32 -36 29 -79 -8 -116 -27 -26 -36 -30 -67 -25 -64 11
-96 62 -72 119 25 60 103 72 147 22z m9263 7 c46 -46 38 -110 -18 -139 -74
-40 -158 39 -121 115 27 57 94 68 139 24z m-10076 -1 c52 -20 52 -98 0 -122
-53 -24 -111 34 -87 87 10 21 26 33 59 44 1 1 13 -3 28 -9z m10843 -17 c31
-42 -1 -113 -53 -113 -69 0 -90 109 -25 133 23 9 64 -2 78 -20z m-11604 -25
c15 -24 -3 -52 -37 -56 -33 -4 -53 28 -37 59 14 25 58 23 74 -3z m12354 10
c19 -19 14 -56 -9 -68 -16 -9 -26 -8 -45 5 -27 17 -29 27 -14 56 12 21 50 25
68 7z m-13151 -23 c7 -20 -2 -29 -21 -22 -9 4 -13 13 -10 22 8 19 23 19 31 0z
m13911 -8 c2 -12 -3 -17 -17 -17 -15 0 -21 6 -21 21 0 25 33 22 38 -4z m1142
-412 l285 -285 285 285 c215 215 292 285 310 285 35 0 70 -37 70 -74 0 -27
-35 -66 -282 -313 l-283 -283 283 -283 c269 -269 283 -285 280 -317 -4 -41
-45 -75 -80 -67 -12 4 -149 132 -303 287 l-280 280 -285 -285 c-191 -190 -293
-285 -307 -285 -35 0 -73 38 -73 73 0 28 31 63 282 314 l283 283 -283 283
c-305 305 -310 311 -260 364 45 48 52 43 358 -262z m-8812 -235 c67 -41 90
-120 54 -189 -50 -100 -186 -106 -249 -12 -62 92 10 221 122 221 22 0 54 -9
73 -20z m779 0 c42 -25 63 -68 63 -129 0 -144 -194 -194 -270 -69 -36 59 -22
135 32 184 30 28 44 32 98 33 28 1 57 -6 77 -19z m770 -1 c114 -71 72 -248
-64 -266 -73 -10 -140 43 -158 124 -9 45 24 117 67 143 44 27 111 26 155 -1z
m-2321 -8 c55 -34 79 -113 50 -169 -62 -118 -227 -103 -256 23 -11 51 5 98 46
134 28 25 43 31 82 31 28 0 59 -8 78 -19z m3092 -1 c55 -34 77 -112 48 -168
-50 -96 -169 -109 -235 -26 -16 20 -21 41 -21 82 0 50 3 58 39 93 34 35 44 39
87 39 31 0 61 -7 82 -20z m-3853 -20 c14 -13 30 -41 36 -62 21 -80 -42 -158
-128 -158 -69 0 -131 77 -119 146 8 38 40 82 70 95 37 16 114 4 141 -21z
m4636 -9 c32 -32 39 -46 39 -77 0 -51 -18 -83 -60 -112 -74 -50 -175 -4 -187
86 -11 82 41 142 126 142 37 0 49 -5 82 -39z m-5433 3 c13 -9 30 -31 38 -51
28 -66 -21 -143 -92 -143 -46 0 -83 19 -100 51 -55 107 54 207 154 143z m6168
11 c69 -29 82 -129 23 -179 -72 -61 -179 -16 -179 74 0 52 13 76 53 100 38 24
56 25 103 5z m-6956 -20 c34 -18 55 -71 41 -106 -26 -69 -104 -85 -152 -31
-43 48 -33 108 22 138 31 17 54 17 89 -1z m7723 3 c34 -17 46 -39 47 -80 0
-55 -36 -93 -90 -93 -55 0 -90 37 -90 95 0 66 74 110 133 78z m-8493 -28 c30
-30 27 -83 -7 -110 -32 -25 -69 -20 -95 12 -27 30 -23 73 8 97 34 26 68 27 94
1z m9271 1 c49 -40 18 -131 -46 -131 -37 0 -75 37 -75 73 0 64 71 99 121 58z
m-10059 -18 c36 -32 17 -83 -32 -83 -14 0 -31 5 -38 12 -27 27 -3 88 35 88 9
0 25 -7 35 -17z m10823 -3 c37 -41 -14 -107 -64 -81 -47 26 -30 101 24 101 12
0 30 -9 40 -20z m-11606 -14 c17 -20 2 -48 -23 -44 -24 3 -34 37 -14 49 18 12
24 11 37 -5z m12365 -9 c9 -14 7 -21 -7 -32 -25 -18 -47 -9 -47 19 0 40 32 48
54 13z m-6137 -683 c62 -39 69 -137 14 -186 -40 -35 -73 -43 -121 -29 -49 15
-81 58 -82 110 -1 101 104 159 189 105z m-1529 -29 c29 -34 30 -102 2 -137
-66 -85 -200 -39 -200 69 0 41 50 100 88 105 42 5 85 -9 110 -37z m768 11 c27
-27 34 -42 34 -75 0 -48 -16 -86 -44 -105 -83 -54 -187 -2 -190 95 -2 72 46
118 123 119 36 0 49 -6 77 -34z m1532 18 c29 -20 52 -65 52 -101 0 -42 -36
-92 -77 -110 -99 -41 -199 69 -149 165 23 44 54 62 106 62 25 0 56 -7 68 -16z
m760 -4 c70 -43 75 -131 11 -185 -71 -59 -179 -4 -179 91 0 40 29 84 63 99 44
19 67 18 105 -5z m-3845 -30 c67 -75 -1 -190 -99 -166 -74 19 -101 117 -46
168 15 14 34 28 42 31 29 12 75 -3 103 -33z m4602 26 c102 -43 71 -191 -40
-191 -110 0 -142 147 -42 190 40 18 41 18 82 1z m-5391 -27 c34 -27 37 -91 4
-126 -51 -54 -148 -14 -148 62 0 74 84 111 144 64z m6190 -10 c30 -35 32 -58
11 -99 -29 -56 -113 -60 -149 -8 -64 91 66 193 138 107z m-6990 10 c13 -7 30
-24 36 -40 24 -58 -37 -117 -95 -91 -54 25 -57 103 -5 129 31 16 33 16 64 2z
m7740 -10 c52 -41 23 -129 -44 -129 -69 0 -97 80 -44 128 31 27 54 28 88 1z
m-8504 -19 c24 -24 25 -38 4 -68 -17 -24 -62 -30 -82 -10 -18 18 -15 75 6 87
26 16 50 13 72 -9z m9270 0 c24 -24 25 -38 4 -68 -17 -24 -62 -30 -82 -10 -17
17 -15 64 4 82 21 22 50 20 74 -4z m-10051 -19 c13 -24 -8 -55 -34 -50 -28 6
-42 34 -26 53 18 22 48 20 60 -3z m10809 10 c8 -4 12 -19 10 -32 -2 -19 -9
-24 -33 -24 -24 0 -31 5 -33 24 -4 23 11 41 33 41 6 0 16 -4 23 -9z m-11604
-32 c-3 -5 -10 -7 -15 -3 -5 3 -7 10 -3 15 3 5 10 7 15 3 5 -3 7 -10 3 -15z
m12363 -5 c-9 -9 -28 6 -21 18 4 6 10 6 17 -1 6 -6 8 -13 4 -17z m-6152 -679
c59 -24 72 -93 29 -144 -33 -40 -89 -43 -131 -7 -50 43 -32 130 32 157 28 11
31 11 70 -6z m770 1 c40 -17 55 -42 55 -91 0 -51 -36 -85 -90 -85 -55 0 -90
34 -90 88 0 45 29 88 63 95 12 2 23 5 25 6 1 0 18 -5 37 -13z m-2294 -25 c35
-35 38 -77 9 -114 -63 -80 -185 -6 -145 89 24 59 90 71 136 25z m777 7 c30
-33 36 -70 18 -107 -30 -56 -94 -69 -143 -27 -37 32 -39 93 -4 130 33 35 98
36 129 4z m2313 -7 c35 -35 38 -77 9 -114 -63 -80 -185 -6 -146 88 26 62 89
74 137 26z m-3874 4 c46 -32 36 -113 -16 -135 -35 -14 -77 -4 -96 23 -51 72
40 163 112 112z m4637 -6 c20 -16 26 -29 26 -59 0 -69 -69 -102 -124 -59 -19
15 -26 29 -26 57 0 71 68 105 124 61z m-5414 -9 c24 -24 26 -72 4 -94 -40 -40
-114 -8 -114 49 0 26 43 65 71 65 11 0 28 -9 39 -20z m6171 9 c47 -25 43 -100
-7 -119 -48 -19 -94 11 -94 61 0 53 53 84 101 58z m-6945 -34 c15 -23 15 -27
0 -51 -23 -33 -64 -30 -85 8 -14 24 -14 28 3 47 26 29 62 27 82 -4z m7722 13
c7 -7 12 -24 12 -38 0 -33 -17 -50 -50 -50 -33 0 -50 17 -50 50 0 33 17 50 50
50 14 0 31 -5 38 -12z m-8517 -8 c23 -13 24 -33 3 -54 -12 -12 -20 -13 -35 -6
-30 17 -24 61 9 69 2 1 12 -4 23 -9z m9277 -2 c30 -30 -4 -77 -41 -57 -20 11
-23 55 -4 62 21 9 32 8 45 -5z m-10052 -19 c10 -17 -13 -36 -27 -22 -12 12 -4
33 11 33 5 0 12 -5 16 -11z m10814 -9 c0 -11 -7 -20 -15 -20 -8 0 -15 9 -15
20 0 11 7 20 15 20 8 0 15 -9 15 -20z m-6147 -728 c43 -38 -5 -121 -63 -107
-67 16 -67 106 0 127 19 6 40 -1 63 -20z m776 3 c23 -22 18 -75 -8 -97 -47
-37 -111 -8 -111 51 0 59 76 88 119 46z m766 0 c14 -13 25 -33 25 -43 0 -33
-38 -72 -70 -72 -32 0 -70 39 -70 72 0 25 44 68 70 68 12 0 32 -11 45 -25z
m-2321 -1 c9 -8 16 -28 16 -44 0 -16 -7 -36 -16 -44 -34 -35 -104 -8 -104 41
0 50 69 82 104 47z m3088 -1 c39 -35 13 -103 -39 -103 -57 0 -82 61 -43 100
24 24 57 26 82 3z m-3864 -5 c7 -7 12 -24 12 -38 0 -33 -17 -50 -50 -50 -33 0
-50 17 -50 50 0 33 17 50 50 50 14 0 31 -5 38 -12z m4637 -8 c15 -16 17 -26 9
-48 -8 -23 -15 -27 -49 -27 -34 0 -41 4 -49 27 -12 33 14 68 49 68 12 0 30 -9
40 -20z m-5411 -12 c15 -24 -3 -52 -37 -56 -33 -4 -53 28 -37 59 14 25 58 23
74 -3z m6180 6 c20 -51 -17 -88 -60 -59 -27 17 -29 27 -14 56 13 24 65 26 74
3z m-6966 -22 c4 -28 -24 -40 -45 -19 -14 13 -14 19 -3 32 18 22 44 15 48 -13z
m7727 -2 c0 -18 -6 -26 -23 -28 -13 -2 -25 3 -28 12 -10 26 4 48 28 44 17 -2
23 -10 23 -28z m-8515 0 c0 -5 -4 -10 -10 -10 -5 0 -10 5 -10 10 0 6 5 10 10
10 6 0 10 -4 10 -10z m9278 -1 c-2 -6 -8 -10 -13 -10 -5 0 -11 4 -13 10 -2 6
4 11 13 11 9 0 15 -5 13 -11z m-54998 -394 l285 -285 285 285 c208 208 291
285 308 285 13 0 34 -11 47 -25 52 -51 49 -55 -257 -362 l-283 -283 283 -283
c306 -307 309 -311 257 -362 -13 -14 -34 -25 -47 -25 -16 0 -102 80 -308 285
l-285 285 -285 -285 c-303 -302 -311 -308 -358 -267 -12 9 -24 30 -28 45 -6
27 11 47 282 318 l289 289 -289 289 c-271 271 -288 291 -282 318 4 15 16 36
28 46 47 40 55 34 358 -268z m49600 -349 c20 -25 8 -61 -22 -64 -37 -4 -57 31
-32 59 20 23 37 24 54 5z m775 1 c24 -18 13 -63 -17 -73 -16 -5 -27 -1 -40 16
-22 27 -22 34 -2 54 19 20 35 20 59 3z m770 0 c13 -10 16 -21 11 -41 -6 -24
-11 -27 -39 -24 -25 2 -33 8 -35 27 -3 15 3 30 14 38 22 16 26 16 49 0z
m-3095 -12 c17 -20 5 -45 -20 -45 -11 0 -23 7 -26 15 -6 15 11 45 26 45 4 0
13 -7 20 -15z m781 -1 c17 -21 0 -49 -32 -49 -24 0 -36 23 -25 51 7 19 40 18
57 -2z m3090 0 c17 -21 0 -49 -32 -49 -24 0 -36 23 -25 51 7 19 40 18 57 -2z
m769 -20 c0 -19 -5 -24 -24 -24 -29 0 -40 24 -20 44 20 20 44 9 44 -20z
m-5416 -5 c-8 -14 -34 -11 -34 4 0 8 3 17 7 20 9 9 34 -13 27 -24z m6183 15
c7 -18 -17 -38 -31 -24 -11 11 -1 40 14 40 6 0 13 -7 17 -16z m-3873 -785 c-3
-5 -10 -7 -15 -3 -5 3 -7 10 -3 15 3 5 10 7 15 3 5 -3 7 -10 3 -15z m770 0
c-3 -5 -10 -7 -15 -3 -5 3 -7 10 -3 15 3 5 10 7 15 3 5 -3 7 -10 3 -15z m776
1 c0 -5 -4 -10 -10 -10 -5 0 -10 5 -10 10 0 6 5 10 10 10 6 0 10 -4 10 -10z
m770 0 c0 -5 -2 -10 -4 -10 -3 0 -8 5 -11 10 -3 6 -1 10 4 10 6 0 11 -4 11
-10z m2595 -1315 c292 -74 495 -334 495 -634 0 -139 -34 -250 -111 -361 -186
-272 -530 -362 -824 -216 -159 79 -269 204 -326 370 -57 165 -46 333 31 495
33 69 57 100 128 171 93 93 166 137 285 171 79 23 241 25 322 4z m-2835 -6720
c38 -20 60 -63 60 -116 0 -35 -6 -48 -39 -80 -32 -32 -46 -39 -77 -39 -51 0
-83 18 -112 60 -19 28 -23 44 -19 80 10 89 106 137 187 95z m1238 -19 c34 -32
37 -39 37 -90 0 -49 -4 -59 -33 -88 -29 -29 -39 -33 -88 -33 -51 0 -58 3 -90
37 -27 30 -34 46 -34 78 0 81 47 129 128 130 35 0 49 -6 80 -34z m1206 13 c56
-44 70 -110 36 -166 -50 -83 -174 -83 -216 -1 -20 38 -22 95 -5 127 31 58 134
80 185 40z m1225 -5 c120 -101 -13 -285 -147 -204 -70 43 -78 136 -17 197 29
29 40 33 83 33 40 0 57 -6 81 -26z m1201 11 c82 -42 80 -179 -4 -219 -45 -21
-84 -20 -123 4 -74 45 -83 139 -19 197 41 38 95 44 146 18z m-4898 -1205 c56
-16 88 -60 88 -122 0 -43 -4 -54 -33 -83 -43 -43 -79 -52 -131 -34 -108 37
-116 183 -13 230 50 22 43 21 89 9z m1256 -18 c82 -54 62 -188 -34 -221 -52
-18 -88 -9 -131 34 -27 27 -33 40 -33 78 0 107 109 168 198 109z m1185 14
c139 -59 92 -260 -57 -242 -132 16 -147 207 -20 246 40 12 41 12 77 -4z m1247
-15 c81 -56 71 -174 -17 -216 -64 -31 -137 -4 -168 62 -54 112 82 225 185 154z
m1182 19 c56 -16 88 -60 88 -122 0 -43 -4 -54 -33 -83 -43 -43 -79 -52 -131
-34 -107 37 -114 184 -12 230 49 22 42 21 88 9z m-4852 -1225 c101 -52 93
-199 -14 -235 -57 -19 -124 9 -152 61 -55 107 61 228 166 174z m1215 1 c105
-44 96 -200 -13 -235 -149 -47 -231 173 -88 235 40 17 59 17 101 0z m1245 -14
c14 -11 31 -35 39 -55 27 -73 -10 -145 -87 -168 -35 -10 -45 -9 -78 7 -52 26
-77 63 -77 114 0 102 121 163 203 102z m1221 -8 c60 -57 59 -137 -1 -188 -62
-52 -140 -37 -188 34 -39 58 -15 141 51 174 45 23 102 15 138 -20z m1183 22
c107 -45 102 -200 -8 -236 -111 -36 -207 88 -146 188 20 32 67 61 103 62 10 0
32 -6 51 -14z m-58559 -781 c113 -24 221 -82 309 -165 42 -40 91 -98 110 -129
117 -195 126 -428 24 -639 -45 -93 -186 -234 -280 -280 -265 -129 -548 -83
-754 123 -64 63 -90 98 -123 165 -47 96 -71 194 -71 290 0 239 146 474 360
579 139 68 279 87 425 56z m53732 -469 c26 -28 33 -44 33 -76 0 -81 -49 -130
-130 -130 -56 0 -109 48 -117 106 -16 123 130 191 214 100z m1215 6 c59 -58
43 -168 -27 -200 -36 -16 -90 -15 -125 3 -63 33 -80 129 -33 185 34 41 58 51
112 46 32 -3 51 -12 73 -34z m1195 18 c74 -45 83 -139 19 -197 -30 -28 -43
-33 -85 -33 -38 0 -56 6 -80 26 -67 56 -56 169 21 207 44 22 86 21 125 -3z
m1221 0 c70 -43 78 -136 17 -197 -29 -29 -39 -33 -85 -33 -46 0 -56 4 -85 33
-19 19 -36 48 -40 69 -14 74 48 148 125 148 19 0 50 -9 68 -20z m1239 -24 c35
-38 43 -87 23 -140 -13 -36 -67 -66 -118 -66 -88 0 -148 100 -108 179 42 80
143 93 203 27z m-4897 -1191 c53 -27 76 -109 48 -170 -32 -71 -142 -86 -202
-26 -27 28 -31 38 -31 87 0 51 3 58 37 90 30 27 46 34 78 34 23 0 54 -7 70
-15z m1242 -25 c39 -38 40 -42 36 -91 -7 -71 -46 -110 -117 -117 -49 -4 -53
-3 -91 36 -34 34 -40 46 -40 82 0 78 51 129 129 130 37 0 49 -5 83 -40z m1202
19 c58 -45 71 -114 33 -170 -58 -86 -176 -78 -217 14 -19 42 -16 92 5 127 30
48 133 65 179 29z m1217 -2 c19 -13 40 -39 48 -61 20 -52 0 -111 -48 -143
-120 -80 -258 69 -169 182 39 50 113 60 169 22z m1209 8 c81 -42 79 -179 -2
-221 -48 -25 -115 -14 -150 25 -53 59 -50 130 8 180 40 36 95 41 144 16z
m-4842 -1239 c19 -19 26 -38 30 -79 4 -51 2 -57 -29 -92 -105 -114 -280 20
-198 151 11 19 21 34 22 34 1 0 19 6 41 14 49 17 100 6 134 -28z m1201 15 c45
-24 65 -108 38 -161 -17 -34 -74 -70 -112 -70 -38 0 -95 36 -112 70 -27 54 -8
131 40 163 42 27 92 26 146 -2z m1201 9 c84 -44 89 -170 8 -220 -68 -43 -165
-3 -187 77 -29 104 82 192 179 143z m1230 -9 c65 -44 73 -136 18 -191 -92 -92
-249 1 -209 123 28 84 120 117 191 68z m1197 14 c42 -12 73 -62 73 -116 0
-133 -174 -176 -236 -58 -34 66 7 157 81 178 30 9 40 8 82 -4z m-40302 -6275
l280 -280 280 280 c265 264 283 280 317 280 27 0 41 -6 52 -22 35 -49 29 -57
-264 -356 l-281 -286 281 -281 c250 -251 280 -284 280 -313 0 -42 -30 -72 -72
-72 -29 0 -62 30 -313 280 l-280 279 -281 -279 c-255 -255 -283 -280 -314
-280 -45 0 -70 25 -70 69 0 33 18 54 280 316 l280 280 -280 280 c-256 257
-280 284 -280 315 0 45 24 70 69 70 33 0 54 -18 316 -280z m28260 -4097 c101
-25 212 -89 290 -168 80 -81 125 -152 163 -257 23 -64 26 -88 26 -203 0 -115
-3 -139 -26 -203 -38 -105 -83 -176 -163 -257 -123 -124 -278 -187 -455 -187
-181 0 -332 63 -462 194 -310 312 -224 834 172 1033 144 72 294 88 455 48z
m-38047 -4376 c2 -10 -3 -17 -12 -17 -18 0 -29 16 -21 31 9 14 29 6 33 -14z
m0 -746 c20 -12 10 -46 -14 -49 -25 -4 -40 24 -23 44 13 16 19 17 37 5z m-748
-751 c40 -40 13 -110 -42 -110 -26 0 -58 36 -58 65 0 30 32 65 60 65 11 0 29
-9 40 -20z m761 -26 c17 -21 0 -49 -32 -49 -24 0 -36 23 -25 51 7 19 40 18 57
-2z"/>
<path d="M62393 29646 c-174 -43 -317 -182 -368 -360 -22 -76 -17 -239 10
-306 99 -247 357 -381 610 -315 190 50 339 221 368 420 50 347 -277 644 -620
561z"/>
<path d="M5900 19719 c-124 -20 -272 -121 -339 -233 -189 -314 -2 -713 359
-767 207 -32 432 86 523 275 30 61 57 168 57 226 0 19 -7 65 -14 102 -33 154
-131 280 -270 348 -111 54 -198 68 -316 49z"/>
<path d="M52353 6475 c-340 -92 -486 -483 -291 -776 97 -145 268 -227 448
-216 157 9 287 80 378 206 209 291 63 695 -283 786 -73 18 -182 18 -252 0z"/>
<path d="M7735 16565 c-77 -24 -378 -114 -670 -200 -549 -162 -989 -292 -1590
-470 -192 -57 -633 -188 -980 -290 -346 -102 -828 -245 -1070 -316 -448 -133
-854 -253 -1500 -444 -198 -58 -517 -153 -710 -210 -192 -57 -534 -158 -760
-225 -226 -66 -418 -123 -427 -126 -17 -5 -18 -354 -18 -7145 l0 -7139 1445 0
c1417 1 1446 1 1478 20 41 25 83 25 125 0 30 -19 50 -20 309 -20 l277 0 27 26
c52 50 137 49 198 -1 l29 -25 245 0 245 0 16 25 c22 33 87 65 132 65 47 0 117
-33 138 -65 l16 -25 223 0 222 1 20 32 c29 46 89 77 153 77 69 0 110 -18 154
-69 l35 -41 191 0 191 0 15 29 c73 141 286 145 375 8 l24 -37 168 0 169 0 20
39 c49 97 166 143 284 110 45 -12 119 -77 136 -119 l12 -30 154 0 c154 0 155
0 164 24 16 42 73 98 125 122 120 56 266 7 326 -108 l19 -38 154 0 154 0 12
30 c31 74 121 130 210 130 92 0 172 -47 211 -123 l19 -37 170 0 c152 0 169 2
174 18 10 29 67 84 110 103 102 46 232 3 282 -93 l15 -28 194 0 c193 0 196 0
206 22 15 33 76 76 123 89 73 20 159 -14 201 -79 l20 -31 221 -1 220 0 23 31
c58 79 204 79 262 0 l23 -31 244 0 244 0 34 30 c59 51 144 49 196 -5 l23 -25
278 0 c264 0 280 1 304 20 35 27 102 27 136 0 25 -20 35 -21 354 -16 180 3
342 4 358 4 17 -1 115 -1 220 -2 l189 -1 52 215 c28 118 104 435 169 703 108
451 116 490 101 506 -9 10 -16 30 -16 45 0 22 7 30 30 39 28 11 31 17 69 177
22 91 97 401 166 690 70 289 198 822 285 1185 268 1113 602 2502 795 3305 223
929 504 2095 540 2243 15 60 24 115 21 122 -2 7 -1255 1201 -2783 2652 -1528
1451 -3272 3107 -3875 3681 -655 621 -1105 1042 -1115 1041 -10 -1 -81 -20
-158 -44z m-870 -9684 c3 -5 1 -12 -5 -16 -5 -3 -10 1 -10 9 0 18 6 21 15 7z
m775 -12 c0 -5 -4 -9 -10 -9 -5 0 -10 7 -10 16 0 8 5 12 10 9 6 -3 10 -10 10
-16z m770 5 c0 -8 -5 -12 -10 -9 -6 4 -8 11 -5 16 9 14 15 11 15 -7z m-2300
-749 c20 -24 3 -57 -28 -53 -30 3 -41 30 -22 53 16 19 34 19 50 0z m780 -4 c7
-15 5 -24 -8 -41 -16 -19 -22 -21 -40 -11 -24 13 -29 40 -10 59 18 18 46 14
58 -7z m774 -3 c23 -37 -36 -77 -63 -44 -8 10 -11 26 -7 42 5 20 12 25 33 22
14 -2 31 -11 37 -20z m764 10 c19 -19 14 -46 -9 -59 -18 -9 -25 -7 -41 9 -16
16 -18 23 -9 41 13 23 40 28 59 9z m772 -3 c18 -21 3 -55 -25 -55 -15 0 -26 7
-30 20 -7 23 10 50 30 50 7 0 18 -7 25 -15z m-3863 -11 c3 -8 -1 -22 -9 -30
-13 -14 -17 -14 -32 1 -13 13 -14 20 -5 31 15 19 38 18 46 -2z m4632 2 c9 -11
8 -18 -5 -31 -15 -15 -19 -15 -32 -1 -17 17 -10 46 11 46 8 0 20 -6 26 -14z
m-5414 -16 c0 -22 -29 -18 -33 3 -3 14 1 18 15 15 10 -2 18 -10 18 -18z m6183
3 c-2 -10 -10 -18 -18 -18 -8 0 -16 8 -18 18 -2 12 3 17 18 17 15 0 20 -5 18
-17z m-3855 -714 c29 -15 37 -28 37 -60 0 -33 -19 -56 -52 -64 -21 -5 -33 -1
-52 19 -33 32 -33 60 -1 91 27 28 37 30 68 14z m792 -14 c14 -13 25 -33 25
-45 0 -11 -11 -32 -25 -45 -13 -14 -33 -25 -45 -25 -11 0 -32 11 -45 25 -14
13 -25 34 -25 45 0 12 11 32 25 45 13 14 34 25 45 25 12 0 32 -11 45 -25z
m770 0 c32 -31 32 -59 -1 -91 -19 -20 -31 -24 -52 -19 -79 19 -66 129 16 134
7 1 24 -10 37 -24z m-2323 -2 c36 -32 11 -103 -36 -103 -44 0 -74 46 -55 83
22 41 59 49 91 20z m3098 -3 c11 -11 20 -29 20 -40 0 -28 -35 -60 -65 -60 -30
0 -65 32 -65 60 0 28 35 60 65 60 14 0 34 -9 45 -20z m-3864 -15 c15 -23 15
-27 0 -50 -11 -17 -26 -25 -44 -25 -35 0 -52 16 -52 50 0 34 17 50 52 50 18 0
33 -8 44 -25z m4636 0 c17 -38 -3 -75 -42 -75 -21 0 -34 8 -46 25 -15 23 -15
27 0 50 12 17 25 25 46 25 23 0 33 -6 42 -25z m-5422 0 c7 -9 10 -25 6 -40 -6
-22 -11 -26 -39 -23 -25 2 -33 8 -35 26 -2 13 -1 30 2 38 7 18 50 18 66 -1z
m6185 -25 c0 -33 -2 -35 -35 -35 -29 0 -36 4 -38 23 -6 40 5 54 40 50 30 -3
33 -6 33 -38z m-6965 15 c10 -12 10 -18 0 -30 -25 -30 -61 -7 -46 30 3 8 12
15 19 15 8 0 20 -7 27 -15z m7728 -13 c4 -28 -24 -40 -45 -19 -14 13 -14 19
-3 32 18 22 44 15 48 -13z m-8508 -2 c0 -5 -7 -10 -15 -10 -8 0 -15 5 -15 10
0 6 7 10 15 10 8 0 15 -4 15 -10z m9270 0 c0 -5 -7 -10 -15 -10 -8 0 -15 5
-15 10 0 6 7 10 15 10 8 0 15 -4 15 -10z m-5359 -706 c25 -22 34 -76 18 -105
-19 -36 -40 -48 -82 -49 -92 0 -122 120 -42 168 25 16 82 8 106 -14z m752 14
c34 -17 46 -39 47 -80 0 -55 -36 -93 -90 -93 -54 0 -90 37 -90 94 0 71 70 113
133 79z m786 -14 c63 -52 28 -154 -53 -154 -48 0 -65 8 -81 41 -23 43 -18 77
14 110 37 37 79 38 120 3z m-2314 -9 c54 -53 12 -145 -66 -145 -32 0 -79 53
-79 90 0 71 94 107 145 55z m3090 0 c35 -34 33 -78 -4 -116 -18 -17 -40 -29
-56 -29 -38 0 -85 50 -85 90 0 71 94 107 145 55z m-3866 -11 c28 -35 26 -69
-4 -99 -49 -50 -129 -14 -127 57 2 66 90 94 131 42z m4631 6 c30 -30 27 -83
-6 -109 -35 -28 -69 -26 -99 4 -30 30 -32 64 -4 99 26 33 79 36 109 6z m-5424
2 c39 -25 36 -90 -5 -111 -31 -17 -50 -13 -77 15 -42 41 -15 104 45 104 14 0
31 -4 37 -8z m6187 -4 c9 -7 19 -25 22 -40 5 -21 1 -33 -19 -52 -14 -15 -35
-26 -46 -26 -11 0 -32 11 -46 26 -42 42 -15 104 46 104 14 0 34 -6 43 -12z
m-6958 -18 c27 -29 10 -74 -28 -78 -36 -4 -57 13 -57 49 0 47 53 65 85 29z
m7716 10 c23 -13 26 -62 5 -79 -46 -38 -111 25 -71 69 20 22 37 25 66 10z
m-8500 -26 c9 -11 10 -20 2 -32 -13 -22 -43 -22 -56 -1 -24 38 25 68 54 33z
m9276 0 c8 -22 -10 -49 -32 -49 -10 0 -22 7 -28 16 -15 24 -1 49 28 49 15 0
28 -7 32 -16z m758 -15 c0 -7 -8 -15 -17 -17 -18 -3 -25 18 -11 32 10 10 28 1
28 -15z m-10824 -2 c-1 -12 -15 -9 -19 4 -3 6 1 10 8 8 6 -3 11 -8 11 -12z
m3919 -686 c14 -10 31 -34 39 -54 12 -32 11 -40 -5 -74 -38 -75 -122 -93 -178
-37 -55 55 -38 140 34 177 39 19 71 16 110 -12z m780 2 c82 -74 35 -203 -74
-203 -94 0 -146 96 -96 178 36 59 119 71 170 25z m768 11 c53 -37 66 -110 29
-165 -82 -122 -270 -10 -202 121 22 42 53 60 105 60 25 0 56 -7 68 -16z m762
1 c54 -28 75 -98 45 -155 -21 -41 -53 -60 -101 -60 -81 0 -140 82 -111 152 29
70 101 97 167 63z m778 -11 c37 -24 55 -78 42 -120 -34 -102 -168 -108 -206
-9 -15 41 -15 46 2 82 33 67 101 86 162 47z m-3855 -25 c32 -34 35 -77 10
-120 -44 -73 -163 -49 -179 37 -8 44 13 85 55 106 44 22 78 15 114 -23z m4602
27 c62 -26 83 -117 37 -160 -69 -62 -172 -23 -172 65 0 43 37 95 73 102 12 2
23 5 25 6 1 0 18 -5 37 -13z m-5383 -36 c25 -26 29 -36 24 -62 -9 -48 -43 -78
-86 -78 -82 0 -118 94 -58 150 33 31 83 26 120 -10z m6176 10 c60 -56 24 -150
-58 -150 -58 0 -99 51 -86 105 10 38 45 65 86 65 23 0 44 -8 58 -20z m-6963
-15 c37 -37 30 -91 -16 -115 -55 -30 -123 32 -99 90 21 51 77 64 115 25z
m7709 14 c57 -26 48 -120 -13 -134 -74 -16 -120 67 -66 120 27 28 42 30 79 14z
m-8494 -29 c11 -11 20 -27 20 -35 0 -20 -36 -55 -57 -55 -25 0 -53 30 -53 56
0 23 33 54 57 54 7 0 22 -9 33 -20z m9272 3 c34 -31 11 -93 -35 -93 -27 0 -57
28 -57 53 0 48 56 73 92 40z m-10053 -22 c7 -13 6 -23 -3 -36 -17 -24 -50 -15
-54 14 -6 39 39 56 57 22z m10816 -16 c0 -25 -4 -30 -24 -30 -32 0 -49 28 -31
50 7 9 23 15 34 13 16 -2 21 -10 21 -33z m-11610 6 c3 -5 1 -12 -5 -16 -5 -3
-10 1 -10 9 0 18 6 21 15 7z m12361 -18 c-10 -10 -19 5 -10 18 6 11 8 11 12 0
2 -7 1 -15 -2 -18z m-6882 -641 c57 -33 82 -121 52 -180 -27 -52 -62 -75 -118
-79 -69 -5 -112 20 -139 82 -25 57 -18 104 23 151 48 54 115 64 182 26z m775
1 c43 -33 63 -68 63 -114 2 -88 -57 -149 -142 -149 -116 0 -182 119 -122 223
37 62 142 83 201 40z m770 -2 c64 -45 83 -120 47 -189 -65 -125 -266 -74 -266
68 0 37 21 90 43 109 50 41 128 46 176 12z m-2322 -6 c32 -22 63 -74 63 -108
0 -75 -60 -137 -133 -137 -109 0 -173 113 -114 201 43 65 122 84 184 44z
m3079 9 c92 -44 98 -182 10 -239 -32 -21 -110 -21 -142 0 -87 57 -82 194 9
239 41 20 80 20 123 0z m-3856 -22 c14 -10 33 -35 44 -56 36 -72 -13 -154 -97
-163 -86 -10 -144 48 -134 134 10 95 110 140 187 85z m4615 14 c92 -39 100
-177 13 -222 -42 -22 -111 -14 -143 16 -66 62 -50 165 30 201 49 23 56 23 100
5z m-5386 -32 c90 -76 12 -218 -101 -184 -46 13 -78 58 -78 109 0 24 9 42 34
67 44 44 99 47 145 8z m6180 0 c90 -76 12 -218 -101 -184 -81 24 -102 126 -38
183 41 36 96 37 139 1z m-6954 -26 c22 -26 26 -39 21 -67 -3 -21 -16 -45 -31
-58 -72 -63 -177 14 -141 102 17 40 40 54 88 55 29 0 42 -7 63 -32z m7720 7
c17 -16 25 -35 25 -59 0 -48 -8 -65 -41 -81 -43 -23 -77 -18 -110 14 -37 37
-38 79 -3 120 34 41 92 44 129 6z m-8506 -21 c27 -35 26 -59 -4 -89 -31 -32
-69 -32 -102 1 -20 20 -24 31 -19 57 8 39 30 57 72 57 23 0 39 -8 53 -26z
m9257 18 c15 -10 34 -47 34 -67 0 -25 -46 -65 -75 -65 -30 0 -75 41 -75 68 0
35 38 72 73 72 18 0 37 -4 43 -8z m-10047 -26 c38 -46 -25 -111 -69 -71 -22
20 -26 55 -8 73 17 17 63 15 77 -2z m10825 -19 c8 -23 6 -31 -12 -49 -30 -30
-75 -16 -80 25 -5 38 15 59 52 55 23 -2 33 -10 40 -31z m-11607 -3 c8 -21 -19
-46 -40 -38 -17 6 -23 35 -10 47 12 13 44 7 50 -9z m12361 -10 c4 -27 -26 -40
-46 -20 -21 20 -8 48 20 44 14 -2 24 -11 26 -24z m-6915 -619 c45 -19 84 -65
98 -118 30 -112 -77 -225 -193 -203 -156 29 -188 239 -49 313 51 27 94 29 144
8z m787 -7 c117 -59 119 -230 5 -295 -114 -64 -255 17 -255 147 0 129 132 207
250 148z m771 -1 c139 -74 107 -284 -48 -313 -59 -11 -105 4 -150 51 -54 56
-64 111 -35 177 42 97 142 133 233 85z m-2312 -14 c14 -11 37 -35 49 -54 20
-28 23 -44 20 -92 -4 -49 -9 -62 -38 -92 -109 -113 -281 -36 -268 120 5 62 29
97 83 125 48 25 114 22 154 -7z m3080 7 c104 -52 114 -204 19 -272 -26 -18
-46 -23 -93 -23 -47 0 -67 5 -93 23 -43 31 -65 77 -66 133 0 119 126 194 233
139z m-3838 -36 c63 -60 61 -154 -5 -212 -47 -41 -94 -48 -151 -23 -56 25 -85
70 -85 131 0 127 150 191 241 104z m4617 17 c59 -32 81 -135 42 -199 -27 -44
-96 -75 -146 -66 -81 15 -139 105 -116 182 28 93 130 131 220 83z m-5429 -9
c139 -74 46 -283 -102 -231 -105 36 -115 182 -17 231 45 23 77 23 119 0z
m6182 3 c39 -21 69 -71 69 -115 0 -129 -173 -177 -240 -67 -68 111 55 242 171
182z m-6963 -19 c73 -38 75 -153 3 -190 -50 -26 -88 -21 -127 18 -27 27 -34
42 -34 74 0 84 84 136 158 98z m7755 -26 c36 -41 37 -96 1 -139 -76 -90 -218
-12 -184 101 24 81 126 102 183 38z m-8515 -16 c33 -38 30 -86 -9 -118 -35
-30 -58 -32 -98 -11 -32 16 -41 33 -41 78 0 37 6 47 40 71 32 22 78 14 108
-20z m9261 10 c25 -20 31 -34 31 -64 0 -30 -6 -44 -31 -64 -39 -33 -69 -33
-108 0 -25 20 -31 34 -31 64 0 30 6 44 31 64 17 14 41 26 54 26 13 0 37 -12
54 -26z m-10046 -26 c24 -28 21 -55 -9 -84 -19 -20 -31 -24 -52 -19 -40 10
-52 24 -52 59 0 71 67 97 113 44z m10815 4 c6 -9 12 -28 12 -42 0 -34 -18 -57
-52 -65 -21 -5 -33 -1 -52 19 -28 27 -32 46 -15 77 21 39 80 45 107 11z
m-11608 -17 c7 -9 10 -25 6 -40 -6 -22 -11 -26 -39 -23 -25 2 -33 8 -35 26 -2
13 -1 30 2 38 7 18 50 18 66 -1z m12365 -25 c0 -33 -2 -35 -35 -35 -29 0 -36
4 -38 23 -5 32 16 54 47 50 22 -3 26 -8 26 -38z m-13150 0 c0 -8 -8 -16 -17
-18 -13 -2 -18 3 -18 18 0 15 5 20 18 18 9 -2 17 -10 17 -18z m7025 -595 c58
-30 110 -112 110 -172 0 -113 -88 -202 -198 -203 -146 -1 -243 145 -183 275
21 47 80 102 119 111 15 3 32 7 37 9 17 6 88 -7 115 -20z m-785 -4 c188 -85
126 -366 -80 -364 -57 0 -98 18 -136 60 -48 52 -65 112 -49 173 32 120 155
181 265 131z m1553 0 c50 -26 78 -58 97 -111 52 -144 -84 -291 -232 -251 -143
39 -191 221 -87 325 16 16 43 35 59 42 44 19 120 17 163 -5z m-2347 -2 c89
-30 143 -130 119 -218 -22 -84 -93 -134 -186 -133 -112 3 -194 112 -165 220
27 105 133 164 232 131z m3116 -8 c81 -37 122 -139 89 -226 -48 -126 -202
-161 -297 -68 -118 114 -38 313 126 313 22 0 59 -9 82 -19z m-3867 -21 c102
-52 117 -186 29 -264 -53 -48 -112 -57 -176 -25 -64 32 -93 77 -93 144 0 126
127 203 240 145z m4636 4 c52 -25 78 -68 82 -139 3 -50 0 -65 -20 -94 -34 -51
-71 -73 -125 -78 -105 -9 -189 75 -180 180 10 116 135 182 243 131z m-5409
-24 c103 -63 80 -226 -38 -261 -78 -24 -168 33 -183 115 -9 50 22 119 66 146
43 26 113 26 155 0z m6209 -22 c42 -47 52 -95 29 -153 -23 -62 -65 -90 -135
-90 -70 0 -112 28 -135 90 -21 55 -14 103 22 146 35 41 57 49 127 46 53 -3 62
-7 92 -39z m-6974 -18 c39 -38 40 -42 36 -90 -8 -86 -79 -135 -159 -111 -136
41 -99 241 45 241 32 0 45 -7 78 -40z m7724 7 c64 -58 55 -152 -19 -197 -83
-51 -187 8 -187 105 0 75 49 125 123 125 39 0 53 -5 83 -33z m-8536 -2 c88
-46 56 -185 -43 -185 -52 0 -76 15 -93 57 -20 47 -4 97 40 124 38 23 58 24 96
4z m9290 -12 c86 -78 3 -214 -103 -169 -72 30 -86 120 -26 170 42 35 89 35
129 -1z m765 -23 c28 -28 26 -87 -4 -111 -35 -28 -85 -25 -110 7 -64 82 39
176 114 104z m-10816 -6 c28 -35 26 -69 -4 -99 -42 -43 -104 -30 -124 25 -19
57 13 99 76 100 22 0 38 -8 52 -26z m-795 -10 c24 -24 20 -61 -9 -80 -23 -15
-27 -15 -50 0 -17 11 -25 26 -25 46 0 45 52 66 84 34z m-786 -36 c-2 -15 -10
-23 -23 -23 -13 0 -21 8 -23 23 -3 18 1 22 23 22 22 0 26 -4 23 -22z m7047
-583 c25 -14 58 -45 73 -67 24 -37 27 -51 27 -124 0 -75 -3 -86 -30 -126 -38
-55 -119 -98 -184 -98 -51 0 -123 29 -159 63 -52 48 -77 135 -61 209 32 150
200 222 334 143z m-784 -1 c197 -108 121 -404 -103 -404 -124 0 -218 93 -218
215 0 164 176 268 321 189z m1534 7 c166 -75 166 -308 1 -393 -57 -29 -158
-23 -214 15 -92 61 -123 182 -71 283 50 99 181 142 284 95z m-2350 -2 c55 -15
120 -82 135 -138 43 -161 -117 -308 -268 -245 -141 58 -174 234 -64 337 53 50
122 66 197 46z m3088 0 c138 -38 190 -217 94 -326 -84 -95 -220 -95 -304 0
-93 107 -50 275 83 322 47 17 77 18 127 4z m-3832 -34 c48 -25 82 -80 87 -140
6 -69 -11 -117 -53 -154 -92 -81 -232 -55 -284 52 -38 78 -23 154 40 214 56
53 140 64 210 28z m4650 -10 c94 -61 105 -212 22 -287 -49 -45 -135 -60 -196
-34 -43 17 -93 76 -106 123 -13 47 -13 49 -1 95 34 120 177 172 281 103z
m-5442 -10 c101 -51 118 -175 36 -255 -30 -29 -43 -34 -92 -37 -75 -5 -119 18
-151 78 -41 76 -19 154 58 207 39 26 106 30 149 7z m6198 -6 c72 -45 94 -157
44 -228 -62 -87 -200 -87 -262 0 -49 69 -30 177 40 225 47 32 129 33 178 3z
m-6982 -13 c97 -41 99 -192 4 -242 -109 -56 -236 64 -183 173 22 45 76 83 116
83 16 0 44 -6 63 -14z m7734 -4 c39 -21 71 -73 71 -115 0 -80 -59 -137 -144
-137 -43 0 -53 4 -87 39 -35 34 -39 44 -39 87 0 61 16 92 59 121 41 28 94 30
140 5z m-8501 -28 c13 -9 30 -32 39 -51 12 -31 13 -41 1 -72 -8 -20 -29 -46
-48 -59 -104 -71 -223 76 -136 167 42 43 92 49 144 15z m9284 -11 c90 -85 -13
-231 -126 -178 -26 12 -39 28 -52 60 -15 41 -15 46 2 82 36 73 118 90 176 36z
m-10068 -15 c15 -13 29 -37 32 -55 5 -27 1 -37 -24 -63 -39 -38 -83 -40 -117
-5 -76 75 29 193 109 123z m10821 -1 c36 -31 38 -86 5 -122 -52 -55 -150 -17
-150 58 0 76 87 114 145 64z m-11603 -24 c26 -23 22 -58 -9 -82 -41 -33 -93
-7 -93 45 0 49 64 72 102 37z m-792 -18 c18 -22 8 -50 -19 -50 -32 0 -49 28
-32 49 17 20 35 20 51 1z"/>
<path d="M61990 11164 c-1177 -128 -2466 -944 -3606 -2284 -278 -328 -464
-579 -1119 -1520 -633 -909 -843 -1194 -1259 -1709 l-19 -23 34 17 c19 10 68
37 111 61 120 68 501 257 664 329 691 307 1320 473 2034 537 189 17 809 17
1000 0 862 -76 1653 -278 2476 -633 1623 -700 3025 -1872 4344 -3631 464 -618
913 -1304 1429 -2185 l72 -123 929 0 930 0 0 2818 0 2819 -150 6 c-845 37
-1543 292 -2183 800 -165 131 -311 263 -497 453 -340 347 -631 709 -1096 1364
-649 912 -726 1018 -938 1283 -829 1036 -1604 1530 -2556 1627 -132 13 -451
10 -600 -6z"/>
<path d="M37160 6550 c-1928 -80 -3744 -1195 -5470 -3360 -228 -286 -528 -694
-821 -1115 -211 -303 -223 -321 -659 -970 -404 -602 -549 -816 -687 -1015
l-62 -90 3451 2 3450 3 93 215 c340 794 807 1528 1404 2205 258 294 720 735
1038 992 797 646 1697 1143 2635 1457 192 65 500 156 525 156 36 0 -4 26 -194
127 -486 258 -840 433 -1228 605 -971 431 -1823 677 -2648 763 -131 13 -578
37 -632 33 -11 -1 -99 -4 -195 -8z"/>
<path d="M59025 6444 c-22 -2 -103 -9 -180 -14 -651 -51 -1308 -224 -1990
-525 -283 -125 -752 -372 -1065 -561 -95 -57 -120 -79 -255 -224 -731 -786
-1525 -1317 -2401 -1605 -156 -52 -173 -60 -411 -203 -660 -396 -1177 -643
-1743 -832 -1630 -545 -3271 -348 -5380 645 -594 280 -1094 547 -2316 1241
-352 200 -651 364 -663 364 -51 0 -400 -82 -637 -150 -993 -285 -1937 -778
-2784 -1455 -426 -341 -839 -745 -1187 -1162 -303 -363 -606 -803 -835 -1213
-129 -231 -358 -705 -358 -740 0 -7 5531 -10 15580 -10 8569 0 15580 2 15580
4 0 7 -244 419 -378 636 -1243 2026 -2480 3414 -3877 4349 -1237 829 -2506
1308 -3805 1437 -154 15 -791 28 -895 18z"/>
<path d="M43565 4850 c-269 -16 -713 -67 -698 -81 15 -13 1227 -699 1478 -837
55 -30 118 -64 140 -77 368 -204 1114 -578 1475 -738 1529 -677 2787 -908
4010 -736 496 70 1043 233 1580 472 261 116 786 388 943 489 29 18 30 19 7 14
-14 -3 -88 -14 -165 -25 -755 -109 -1575 -59 -2545 155 -487 107 -1002 249
-1810 499 -777 240 -980 302 -1285 390 -924 266 -1586 403 -2230 460 -212 19
-688 27 -900 15z"/>
</g>
</svg>
